<svg version="1.0" xmlns="http://www.w3.org/2000/svg"
 width="192.000000pt" height="192.000000pt" viewBox="0 0 192.000000 192.000000"
 preserveAspectRatio="xMidYMid meet">

<g transform="translate(0.000000,192.000000) scale(0.100000,-0.100000)"
fill="#6415FF" stroke="none">
<path d="M745 1816 c-165 -43 -285 -112 -408 -233 -267 -264 -335 -679 -168
-1014 51 -101 91 -156 175 -239 108 -106 233 -179 384 -223 65 -18 101 -22
232 -22 171 0 247 15 372 75 130 61 261 168 344 281 174 237 213 575 99 856
-80 198 -250 376 -445 465 -173 80 -402 101 -585 54z m75 -886 l0 -530 -115 0
-115 0 0 410 c0 226 -3 410 -6 410 -3 0 -42 -9 -86 -21 -44 -11 -82 -18 -85
-16 -6 7 -53 180 -49 184 1 2 68 23 147 47 118 36 159 44 227 45 l82 1 0 -530z
m640 0 l0 -530 -115 0 -115 0 0 410 c0 226 -3 410 -7 410 -5 0 -45 -9 -91 -20
-46 -11 -85 -20 -87 -20 -7 0 -47 181 -41 187 4 4 68 26 144 49 113 34 152 42
225 43 l87 1 0 -530z"/>
</g>
</svg>
